HIERARCHY
ROOT Hips
{
	OFFSET 0 0 0
	CHANNELS 6 Xposition Yposition Zposition Yrotation Xrotation Zrotation
	JOINT Spine
	{
		OFFSET -0 8.07728 -2.57463
		CHANNELS 3 Yrotation Xrotation Zrotation
		JOINT Spine1
		{
			OFFSET -0 7.85748 0
			CHANNELS 3 Yrotation Xrotation Zrotation
			JOINT Spine2
			{
				OFFSET -0 7.85748 0
				CHANNELS 3 Yrotation Xrotation Zrotation
				JOINT Spine3
				{
					OFFSET -0 7.85748 0
					CHANNELS 3 Yrotation Xrotation Zrotation
					JOINT Neck
					{
						OFFSET -0 14.0969 3.57463
						CHANNELS 3 Yrotation Xrotation Zrotation
						JOINT Head
						{
							OFFSET -0 10.0966 0
							CHANNELS 3 Yrotation Xrotation Zrotation
							End Site
							{
								OFFSET 0 15 0
							}
						}
					}
					JOINT LeftShoulder
					{
						OFFSET 1.68277 2.40696 3.36553
						CHANNELS 3 Yrotation Xrotation Zrotation
						JOINT LeftArm
						{
							OFFSET 18.0611 0 0
							CHANNELS 3 Yrotation Xrotation Zrotation
							JOINT LeftForeArm
							{
								OFFSET 22.6236 0 0
								CHANNELS 3 Yrotation Xrotation Zrotation
								JOINT LeftHand
								{
									OFFSET 24.2874 0 0
									CHANNELS 3 Yrotation Xrotation Zrotation
									JOINT LeftHandThumb1
									{
										OFFSET 4.73728 0 2.48881
										CHANNELS 3 Yrotation Xrotation Zrotation
										JOINT LeftHandThumb2
										{
											OFFSET 3 0 1
											CHANNELS 3 Yrotation Xrotation Zrotation
											JOINT LeftHandThumb3
											{
												OFFSET 2.1 0 0
												CHANNELS 3 Yrotation Xrotation Zrotation
												JOINT LeftHandThumb4
												{
													OFFSET 1.305 0 0
													CHANNELS 3 Yrotation Xrotation Zrotation
													End Site
													{
														OFFSET -0 0 0
													}
												}
											}
										}
									}
									JOINT LeftHandIndex1
									{
										OFFSET 8.45149 0 3.3332
										CHANNELS 3 Yrotation Xrotation Zrotation
										JOINT LeftHandIndex2
										{
											OFFSET 3.5 0 0
											CHANNELS 3 Yrotation Xrotation Zrotation
											JOINT LeftHandIndex3
											{
												OFFSET 2.45 0 0
												CHANNELS 3 Yrotation Xrotation Zrotation
												JOINT LeftHandIndex4
												{
													OFFSET 1.5225 0 0
													CHANNELS 3 Yrotation Xrotation Zrotation
													End Site
													{
														OFFSET -0 0 0
													}
												}
											}
										}
									}
									JOINT LeftHandMiddle1
									{
										OFFSET 8.76388 0 0.837268
										CHANNELS 3 Yrotation Xrotation Zrotation
										JOINT LeftHandMiddle2
										{
											OFFSET 4.6 0 0
											CHANNELS 3 Yrotation Xrotation Zrotation
											JOINT LeftHandMiddle3
											{
												OFFSET 3.22 0 0
												CHANNELS 3 Yrotation Xrotation Zrotation
												JOINT LeftHandMiddle4
												{
													OFFSET 2.001 0 0
													CHANNELS 3 Yrotation Xrotation Zrotation
													End Site
													{
														OFFSET -0 0 0
													}
												}
											}
										}
									}
									JOINT LeftHandRing1
									{
										OFFSET 8.77626 0 -1.65867
										CHANNELS 3 Yrotation Xrotation Zrotation
										JOINT LeftHandRing2
										{
											OFFSET 3.75 0 0
											CHANNELS 3 Yrotation Xrotation Zrotation
											JOINT LeftHandRing3
											{
												OFFSET 2.625 0 0
												CHANNELS 3 Yrotation Xrotation Zrotation
												JOINT LeftHandRing4
												{
													OFFSET 1.63125 0 0
													CHANNELS 3 Yrotation Xrotation Zrotation
													End Site
													{
														OFFSET -0 0 0
													}
												}
											}
										}
									}
									JOINT LeftHandPinky1
									{
										OFFSET 8.48864 0 -4.1546
										CHANNELS 3 Yrotation Xrotation Zrotation
										JOINT LeftHandPinky2
										{
											OFFSET 2.875 0 0
											CHANNELS 3 Yrotation Xrotation Zrotation
											JOINT LeftHandPinky3
											{
												OFFSET 2.0125 0 0
												CHANNELS 3 Yrotation Xrotation Zrotation
												JOINT LeftHandPinky4
												{
													OFFSET 1.25062 0 0
													CHANNELS 3 Yrotation Xrotation Zrotation
													End Site
													{
														OFFSET -0 0 0
													}
												}
											}
										}
									}
								}
							}
						}
					}
					JOINT RightShoulder
					{
						OFFSET -1.68277 2.40696 3.36553
						CHANNELS 3 Yrotation Xrotation Zrotation
						JOINT RightArm
						{
							OFFSET -18.0611 0 0
							CHANNELS 3 Yrotation Xrotation Zrotation
							JOINT RightForeArm
							{
								OFFSET -22.6236 0 0
								CHANNELS 3 Yrotation Xrotation Zrotation
								JOINT RightHand
								{
									OFFSET -24.2874 0 0
									CHANNELS 3 Yrotation Xrotation Zrotation
									JOINT RightHandThumb1
									{
										OFFSET -4.51754 0 2.6169
										CHANNELS 3 Yrotation Xrotation Zrotation
										JOINT RightHandThumb2
										{
											OFFSET -3 0 1
											CHANNELS 3 Yrotation Xrotation Zrotation
											JOINT RightHandThumb3
											{
												OFFSET -2.1 0 0
												CHANNELS 3 Yrotation Xrotation Zrotation
												JOINT RightHandThumb4
												{
													OFFSET -1.305 0 0
													CHANNELS 3 Yrotation Xrotation Zrotation
													End Site
													{
														OFFSET -0 0 0
													}
												}
											}
										}
									}
									JOINT RightHandIndex1
									{
										OFFSET -8.60414 0 3.42357
										CHANNELS 3 Yrotation Xrotation Zrotation
										JOINT RightHandIndex2
										{
											OFFSET -3.5 0 0
											CHANNELS 3 Yrotation Xrotation Zrotation
											JOINT RightHandIndex3
											{
												OFFSET -2.45 0 0
												CHANNELS 3 Yrotation Xrotation Zrotation
												JOINT RightHandIndex4
												{
													OFFSET -1.5225 0 0
													CHANNELS 3 Yrotation Xrotation Zrotation
													End Site
													{
														OFFSET -0 0 0
													}
												}
											}
										}
									}
									JOINT RightHandMiddle1
									{
										OFFSET -8.52211 0 1.19563
										CHANNELS 3 Yrotation Xrotation Zrotation
										JOINT RightHandMiddle2
										{
											OFFSET -4.6 0 0
											CHANNELS 3 Yrotation Xrotation Zrotation
											JOINT RightHandMiddle3
											{
												OFFSET -3.22 0 0
												CHANNELS 3 Yrotation Xrotation Zrotation
												JOINT RightHandMiddle4
												{
													OFFSET -2.001 0 0
													CHANNELS 3 Yrotation Xrotation Zrotation
													End Site
													{
														OFFSET -0 0 0
													}
												}
											}
										}
									}
									JOINT RightHandRing1
									{
										OFFSET -8.14008 0 -1.0323
										CHANNELS 3 Yrotation Xrotation Zrotation
										JOINT RightHandRing2
										{
											OFFSET -3.75 0 0
											CHANNELS 3 Yrotation Xrotation Zrotation
											JOINT RightHandRing3
											{
												OFFSET -2.625 0 0
												CHANNELS 3 Yrotation Xrotation Zrotation
												JOINT RightHandRing4
												{
													OFFSET -1.63125 0 0
													CHANNELS 3 Yrotation Xrotation Zrotation
													End Site
													{
														OFFSET -0 0 0
													}
												}
											}
										}
									}
									JOINT RightHandPinky1
									{
										OFFSET -7.45805 0 -3.26023
										CHANNELS 3 Yrotation Xrotation Zrotation
										JOINT RightHandPinky2
										{
											OFFSET -2.875 0 0
											CHANNELS 3 Yrotation Xrotation Zrotation
											JOINT RightHandPinky3
											{
												OFFSET -2.0125 0 0
												CHANNELS 3 Yrotation Xrotation Zrotation
												JOINT RightHandPinky4
												{
													OFFSET -1.25062 0 0
													CHANNELS 3 Yrotation Xrotation Zrotation
													End Site
													{
														OFFSET -0 0 0
													}
												}
											}
										}
									}
								}
							}
						}
					}
				}
			}
		}
	}
	JOINT LeftUpLeg
	{
		OFFSET 10.0966 -3.36553 3
		CHANNELS 3 Yrotation Xrotation Zrotation
		JOINT LeftLeg
		{
			OFFSET -0 -44.1253 2.35587
			CHANNELS 3 Yrotation Xrotation Zrotation
			JOINT LeftFoot
			{
				OFFSET -0 -37.5861 -2.35587
				CHANNELS 3 Yrotation Xrotation Zrotation
				JOINT LeftToeBase
				{
					OFFSET -0 -9.60866 9.35537
					CHANNELS 3 Yrotation Xrotation Zrotation
					End Site
					{
						OFFSET 0 0 5
					}
				}
			}
		}
	}
	JOINT RightUpLeg
	{
		OFFSET -10.0966 -3.36553 3
		CHANNELS 3 Yrotation Xrotation Zrotation
		JOINT RightLeg
		{
			OFFSET -0 -44.1253 2.35587
			CHANNELS 3 Yrotation Xrotation Zrotation
			JOINT RightFoot
			{
				OFFSET -0 -37.5861 -2.35587
				CHANNELS 3 Yrotation Xrotation Zrotation
				JOINT RightToeBase
				{
					OFFSET -0 -9.60866 9.35537
					CHANNELS 3 Yrotation Xrotation Zrotation
					End Site
					{
						OFFSET 0 0 5
					}
				}
			}
		}
	}
}
MOTION
Frames: 4
Frame Time: 0.0047619
70.491888 93.572107 -109.141040 -30.115124 14.011425 4.747839 5.816924 2.338639 3.537291 5.322079 1.827579 2.376994 1.730567 1.426922 1.144831 0.662998 1.082172 0.168148 36.437960 16.695247 -19.401673 17.233494 -6.521557 5.071940 19.709823 4.959296 0.969049 -21.395770 21.769365 -26.028329 -73.198451 0.177067 -12.065735 80.893493 -48.475728 -77.819325 -56.457650 10.234602 13.609420 -64.859879 12.718012 14.565994 2.607597 1.500688 4.265257 0.000004 -0.000000 12.500004 0.000004 -0.000000 12.500004 -0.000004 0.000003 9.999997 0.000010 -0.000012 4.999999 0.000004 -0.000000 12.500004 0.000004 -0.000000 12.500004 -0.000004 0.000003 9.999997 0.000010 -0.000012 4.999999 0.000004 -0.000000 12.500004 0.000004 -0.000000 12.500004 -0.000004 0.000003 9.999997 0.000010 -0.000012 4.999999 0.000004 -0.000000 12.500004 0.000004 -0.000000 12.500004 -0.000004 0.000003 9.999997 0.000010 -0.000012 4.999999 -175.550195 -0.002112 -179.945643 0.037684 1.802316 -21.787377 2.612831 -3.334487 -5.250036 42.339625 7.509446 -12.212769 -55.938511 5.180471 92.807289 6.201449 -14.030761 4.521909 7.063386 -16.174609 5.086110 8.682936 -17.738480 -4.738990 -0.000344 -0.000282 15.020922 -0.000344 -0.000282 15.020922 -0.000206 -0.000293 12.016750 -0.000068 -0.000158 6.008361 0.000046 -0.000060 26.138076 0.000046 -0.000060 26.138076 0.000055 -0.000023 20.910469 0.000036 -0.000007 10.455225 0.000068 0.000079 -5.736869 0.000068 0.000079 -5.736869 0.000052 0.000050 -4.589503 0.000037 0.000027 -2.294751 -0.001182 -0.000683 11.631934 -0.001182 -0.000683 11.631934 -0.000822 -0.000719 9.305557 -0.000348 -0.000419 4.652769 -56.457650 10.234602 13.609420 15.920401 -10.844537 -20.621133 0.000000 3.137316 0.000000 -0.053306 0.962285 9.860329 0.000000 -5.305969 0.000000 166.725178 -52.673719 164.444960 180.000000 71.623072 180.000000 -37.959028 -20.362749 -11.322889 0.000000 -15.024292 0.000000
70.492682 93.568231 -109.154138 -30.114935 14.003717 4.753686 5.817391 2.330388 3.536166 5.313889 1.855660 2.372901 1.723305 1.451364 1.147504 0.673490 1.066553 0.171024 36.439166 16.674438 -19.400400 17.228293 -6.531858 5.074287 19.704628 4.967198 0.996231 -21.436225 21.765806 -26.030928 -73.180610 0.160356 -12.045065 80.906871 -48.474198 -77.866769 -56.455456 10.251144 13.596952 -64.857815 12.735681 14.550521 2.558983 1.501224 4.291054 0.000005 -0.000007 12.499990 0.000005 -0.000007 12.499990 0.000001 0.000003 10.000002 0.000002 0.000003 5.000005 0.000005 -0.000007 12.499990 0.000005 -0.000007 12.499990 0.000001 0.000003 10.000002 0.000002 0.000003 5.000005 0.000005 -0.000007 12.499990 0.000005 -0.000007 12.499990 0.000001 0.000003 10.000002 0.000002 0.000003 5.000005 0.000005 -0.000007 12.499990 0.000005 -0.000007 12.499990 0.000001 0.000003 10.000002 0.000002 0.000003 5.000005 -175.550203 -0.002112 -179.945643 0.040670 1.786929 -21.777841 2.599244 -3.369528 -5.255427 42.342806 7.593656 -12.127392 -55.803788 5.164990 92.679998 6.209208 -14.036466 4.525816 7.072285 -16.181329 5.090412 8.645246 -17.764197 -4.730776 -0.000142 -0.000105 15.210649 -0.000142 -0.000105 15.210649 -0.000086 -0.000109 12.168509 -0.000034 -0.000076 6.084254 -0.000023 -0.000040 26.241785 -0.000023 -0.000040 26.241785 -0.000004 -0.000029 20.993432 0.000004 -0.000023 10.496718 -0.000017 -0.000004 -5.629997 -0.000017 -0.000004 -5.629997 -0.000017 -0.000007 -4.504012 -0.000010 0.000000 -2.251994 -0.000314 -0.000184 11.764305 -0.000314 -0.000184 11.764305 -0.000230 -0.000200 9.411446 -0.000088 -0.000113 4.705707 -56.455456 10.251144 13.596952 15.910364 -10.850671 -20.624366 0.000000 3.142066 0.000000 -0.034412 0.955246 9.881765 0.000000 -5.335576 0.000000 166.768222 -52.683863 164.406560 180.000000 71.633746 180.000000 -37.968321 -20.357943 -11.339525 0.000000 -15.021769 0.000000
70.494781 93.563629 -109.164771 -30.107328 14.000248 4.756290 5.808854 2.342350 3.538276 5.314123 1.844447 2.377030 1.720111 1.449951 1.146615 0.663667 1.087210 0.177873 36.443154 16.678532 -19.402642 17.223972 -6.562207 5.068511 19.693506 4.938585 1.008680 -21.437225 21.791082 -26.031771 -73.193453 0.166612 -12.052409 80.970273 -48.496241 -77.961343 -56.455456 10.251144 13.596952 -64.857815 12.735681 14.550521 2.558983 1.501224 4.291054 0.000005 -0.000007 12.499990 0.000005 -0.000007 12.499990 0.000001 0.000003 10.000002 0.000002 0.000003 5.000005 0.000005 -0.000007 12.499990 0.000005 -0.000007 12.499990 0.000001 0.000003 10.000002 0.000002 0.000003 5.000005 0.000005 -0.000007 12.499990 0.000005 -0.000007 12.499990 0.000001 0.000003 10.000002 0.000002 0.000003 5.000005 0.000005 -0.000007 12.499990 0.000005 -0.000007 12.499990 0.000001 0.000003 10.000002 0.000002 0.000003 5.000005 -175.550203 -0.002112 -179.945643 0.032607 1.786950 -21.790964 2.600065 -3.310685 -5.227936 42.357030 7.511554 -12.145902 -55.819780 5.142531 92.611616 6.209208 -14.036466 4.525816 7.072285 -16.181329 5.090412 8.645246 -17.764197 -4.730776 -0.000142 -0.000105 15.210649 -0.000142 -0.000105 15.210649 -0.000086 -0.000109 12.168509 -0.000034 -0.000076 6.084254 -0.000023 -0.000040 26.241785 -0.000023 -0.000040 26.241785 -0.000004 -0.000029 20.993432 0.000004 -0.000023 10.496718 -0.000017 -0.000004 -5.629997 -0.000017 -0.000004 -5.629997 -0.000017 -0.000007 -4.504012 -0.000010 0.000000 -2.251994 -0.000314 -0.000184 11.764305 -0.000314 -0.000184 11.764305 -0.000230 -0.000200 9.411446 -0.000088 -0.000113 4.705707 -56.455456 10.251144 13.596952 15.922228 -10.846986 -20.631402 0.000000 3.142253 0.000000 -0.056962 0.954897 9.926114 0.000000 -5.336786 0.000000 166.831768 -52.690206 164.330229 180.000000 71.636804 180.000000 -37.958539 -20.380818 -11.391474 0.000000 -15.024602 0.000000
70.499078 93.560577 -109.173145 -30.099345 13.989507 4.762752 5.810307 2.349741 3.545622 5.318702 1.852488 2.387209 1.714457 1.440527 1.150174 0.645716 1.113646 0.171611 36.437409 16.661299 -19.417111 17.219511 -6.568301 5.082456 19.685871 4.960524 0.986305 -21.434900 21.795104 -25.941244 -73.200867 0.073226 -12.070304 80.969129 -48.521572 -77.962354 -56.455456 10.251144 13.596952 -64.857815 12.735681 14.550521 2.558983 1.501224 4.291054 0.000005 -0.000007 12.499990 0.000005 -0.000007 12.499990 0.000001 0.000003 10.000002 0.000002 0.000003 5.000005 0.000005 -0.000007 12.499990 0.000005 -0.000007 12.499990 0.000001 0.000003 10.000002 0.000002 0.000003 5.000005 0.000005 -0.000007 12.499990 0.000005 -0.000007 12.499990 0.000001 0.000003 10.000002 0.000002 0.000003 5.000005 0.000005 -0.000007 12.499990 0.000005 -0.000007 12.499990 0.000001 0.000003 10.000002 0.000002 0.000003 5.000005 -175.550203 -0.002112 -179.945643 0.029091 1.780734 -21.804099 2.590104 -3.313048 -5.195546 42.373046 7.547595 -12.146369 -55.833063 5.099619 92.608424 6.209208 -14.036466 4.525816 7.072285 -16.181329 5.090412 8.645246 -17.764197 -4.730776 -0.000142 -0.000105 15.210649 -0.000142 -0.000105 15.210649 -0.000086 -0.000109 12.168509 -0.000034 -0.000076 6.084254 -0.000023 -0.000040 26.241785 -0.000023 -0.000040 26.241785 -0.000004 -0.000029 20.993432 0.000004 -0.000023 10.496718 -0.000017 -0.000004 -5.629997 -0.000017 -0.000004 -5.629997 -0.000017 -0.000007 -4.504012 -0.000010 0.000000 -2.251994 -0.000314 -0.000184 11.764305 -0.000314 -0.000184 11.764305 -0.000230 -0.000200 9.411446 -0.000088 -0.000113 4.705707 -56.455456 10.251144 13.596952 15.898065 -10.858201 -20.633436 0.000000 3.160845 0.000000 -0.013321 0.931253 9.924418 0.000000 -5.302510 0.000000 166.842539 -52.700413 164.301825 180.000000 71.633511 180.000000 -37.967340 -20.367022 -11.351679 0.000000 -15.006318 0.000000
